<?xml version="1.0" encoding="utf-8"?>
<!-- Generator: Adobe Illustrator 22.1.0, SVG Export Plug-In . SVG Version: 6.00 Build 0)  -->
<svg version="1.1" id="Layer_1" xmlns="http://www.w3.org/2000/svg" xmlns:xlink="http://www.w3.org/1999/xlink" x="0px" y="0px"
	 viewBox="0 0 90 110" style="enable-background:new 0 0 90 110;" xml:space="preserve">
<style type="text/css">
	.st0{fill:#FFFFFF;}
	.st1{fill:#E5E1E6;}
	.st2{fill:none;stroke:#E5E1E6;stroke-width:3;stroke-miterlimit:10;}
	.st3{fill:none;stroke:#E5E1E6;stroke-width:2;stroke-linecap:round;stroke-linejoin:round;stroke-miterlimit:10;}
</style>
<g>
	<g>
		<g>
			<polygon class="st0" points="12.5,97.5 12.5,12.5 52.8632812,12.5 77.5,38.0058594 77.5,97.5 			"/>
			<path class="st1" d="M52.2267838,14L76,38.6122742V96H14V14H52.2267838 M53.5,11H11v88h68V37.4000015L53.5,11L53.5,11z"/>
		</g>
		<polyline class="st2" points="53.5,13.0705881 53.5,37.4000015 77,37.4000015 		"/>
	</g>
	<g>
		<path class="st3" d="M52.4525414,70.5474472L40.5101585,82.48983l-0.1792488,0.179245
			c-5.9892464,5.9892502-11.3308563,8.5208435-15.8970394,3.9546585s-2.0345917-9.9077911,3.9546547-15.8970413l0.1792488-0.179245
			l20.6695118-20.6695137l0.1194992-0.1194992c3.9928322-3.9928322,8.7787628-5.6805573,11.8228836-2.6364365
			c3.0441246,3.0441246,1.3563957,7.8300552-2.6364365,11.8228874l-0.1194954,0.1194992L39.1321907,78.3559265
			c-1.9675407,1.9675446-5.2557487,1.8693542-6.7778091,0.3472977c-1.5220585-1.5220642-1.6202488-4.8102722,0.3472939-6.7778091
			l10.1050949-10.1050949"/>
	</g>
</g>
</svg>
