<?xml version="1.0" encoding="utf-8"?>
<!-- Generator: Adobe Illustrator 19.1.0, SVG Export Plug-In . SVG Version: 6.00 Build 0)  -->
<svg version="1.1" xmlns="http://www.w3.org/2000/svg" xmlns:xlink="http://www.w3.org/1999/xlink" x="0px" y="0px"
	 viewBox="0 0 54 108" style="enable-background:new 0 0 54 108;" xml:space="preserve">
<style type="text/css">
	.st0{fill:#000000;}
	.st1{display:none;fill:#06FCE4;}
	.st2{display:none;}
	.st3{display:inline;fill:#06FCE4;}
	.st4{display:inline;}
	.st5{fill:#06FCE4;}
	.st6{fill:#FFFFFF;}
</style>
<g id="Layer_1">
	<g id="Layer_1_1_">
		<path class="st0" d="M0.2,64v1.2c0,0,0,4.9,0,9.3c0,0-0.3,3.4,1.5,4.9c1.9,1.5,25,11.4,25,11.4S50,81,51.8,79.2
			c1.5-1.5,1.5-4.6,1.5-4.6c0-4.3,0-9.3,0-9.3V64H0.2z"/>
		<path class="st1" d="M19.7,54.1c0.9,0,1.9-0.6,1.9-1.5c0-1.2-0.9-1.9-2.2-2.2c-0.9,0.3-1.5,0.9-1.5,1.9
			C17.9,53.1,18.5,54.1,19.7,54.1L19.7,54.1z"/>
		<path class="st1" d="M19.4,44.8c-0.9,0-1.5,0.6-1.5,1.5s0.9,1.5,1.9,1.9c0.6,0,1.2-0.9,1.2-1.5C21.3,45.7,20.6,44.8,19.4,44.8
			L19.4,44.8z"/>
		<g class="st2">
			<g>
				<path class="st3" d="M0.2,40.2v1.2c0,0,0,4.9,0,9.3c0,0-0.3,3.4,1.5,4.9s25,11.4,25,11.4s23.2-9.9,25-11.7
					c1.5-1.5,1.5-4.6,1.5-4.6c0-4.3,0-9.3,0-9.3v-1.2H0.2z M9.5,55.9H6.1V46l0,0l-1.5,0.6l-0.3-2.8l2.5-1.2h3.1v13.3
					C9.9,55.9,9.5,55.9,9.5,55.9z M19.4,56.2c-3.7,0-4.9-1.9-4.9-3.7c0-1.5,0.9-2.5,2.2-3.1l0,0c-1.2-0.6-1.9-1.9-1.9-2.8
					c0-2.2,2.2-3.7,4.9-3.7l0,0c3.4,0,4.6,1.9,4.6,3.4c0,1.2-0.6,2.2-1.9,2.8l0,0c1.2,0.3,2.2,1.5,2.2,3.1
					C24.6,54.7,22.8,56.2,19.4,56.2z M36.7,45.1l-5.3,10.8h-3.7L33,46l0,0h-5.9v-3.1h9.6V45.1z M49.1,55.9h-9.6v-2.2l1.9-1.5
					c2.8-2.2,4-3.7,4-4.9c0-0.9-0.6-1.5-1.9-1.5c-1.2,0-2.2,0.6-2.8,0.9l-0.9-2.5c0.9-0.6,2.8-1.2,4.6-1.2c3.1,0,4.9,1.5,4.9,4.3
					c0,2.2-1.5,3.7-3.1,4.9L45,53.1l0,0h4L49.1,55.9L49.1,55.9z"/>
			</g>
		</g>
		<g class="st2">
			<g class="st4">
				<path class="st5" d="M0.2,0v38.3h4.6V1.9h7.4v36.5H16V4h4v34.3h13.6V4h4v34.3H41V1.5h7.4v36.8H54V0H0.2z M25.6,35.8h-2.8V7.4
					h2.8V35.8z M30.8,35.8H28V7.4h2.8V35.8z"/>
			</g>
		</g>
	</g>
</g>
<g id="Layer_2">
	<path class="st6" d="M0,0.9v36.4c0,0.5,0.4,0.9,0.9,0.9h4.3c0.5,0,0.9-0.4,0.9-0.9V2.7c0-0.5,0.4-0.9,0.9-0.9h5.5
		c0.5,0,0.9,0.4,0.9,0.9v34.8c0,0.5,0.4,0.9,0.9,0.9h23.8c0.5,0,0.9-0.4,0.9-0.9V2.7c0-0.5,0.4-0.9,0.9-0.9h5.5
		c0.5,0,0.9,0.4,0.9,0.9v34.8c0,0.5,0.4,0.9,0.9,0.9h4.9c0.5,0,0.9-0.4,0.9-0.9V0.9c0-0.5-0.4-0.9-0.9-0.9H1C0.5,0,0,0.4,0,0.9z
		 M17.9,37.7h-2.1c-0.5,0-0.9-0.4-0.9-0.9V4c0-0.5,0.4-0.9,0.9-0.9h2.1c0.5,0,0.9,0.4,0.9,0.9v32.7C18.9,37.2,18.4,37.7,17.9,37.7z
		 M21.1,35.1h-0.2c-0.5,0-0.9-0.4-0.9-0.9V5.5c0-0.5,0.4-0.9,0.9-0.9h0.2c0.5,0,0.9,0.4,0.9,0.9v28.7C22.1,34.7,21.7,35.1,21.1,35.1
		z M24,34h-1V6h1V34z M26.6,33.3h-0.2c-0.5,0-0.9-0.4-0.9-0.9l0,0c0-0.5,0.4-0.9,0.9-0.9h0.2c0.5,0,0.9,0.4,0.9,0.9l0,0
		C27.5,32.9,27.1,33.3,26.6,33.3z M30.1,33.9h-1v-28h1V33.9z M32.1,35.1h-0.2c-0.5,0-0.9-0.4-0.9-0.9V5.5c0-0.5,0.4-0.9,0.9-0.9h0.2
		C32.6,4.5,33,5,33,5.5v28.7C33,34.7,32.6,35.1,32.1,35.1z M37.2,37.7h-2.1c-0.5,0-0.9-0.4-0.9-0.9V4c0-0.5,0.4-0.9,0.9-0.9h2.1
		c0.5,0,0.9,0.4,0.9,0.9v32.7C38.1,37.2,37.7,37.7,37.2,37.7z"/>
	<g>
		<g>
			<path class="st6" d="M0,40.3v1.2c0,0,0,4.9,0,9.2c0,0-0.4,3.4,1.7,5c1.8,1.3,21.7,9.9,24.7,11.1c0.2,0.1,0.5,0.1,0.7,0
				c3-1.3,23-9.9,24.7-11.5c1.7-1.4,1.7-4.7,1.7-4.7c0-4.3,0-9.2,0-9.2v-1.3L0,40.3z M8.8,53.9H8.1c-0.5,0-0.9-0.4-0.9-0.9v-6.6l0,0
				l-0.9,0.4c-0.5,0.2-1.2-0.1-1.3-0.7l0-0.2c-0.1-0.4,0.1-0.9,0.6-1.1l2-0.8C7.5,44,7.6,44,7.8,44h1.1c0.5,0,0.9,0.4,0.9,0.9V53
				C9.8,53.5,9.4,53.9,8.8,53.9z M20.2,54.2c-2.8,0-3.9-1.6-3.9-2.8c0-1.2,0.7-2,1.7-2.4l0,0c-0.9-0.6-1.4-1.3-1.4-2.2
				c0-1.8,1.6-2.9,3.7-2.9l0,0c2.5,0,3.5,1.4,3.5,2.7c0,0.9-0.4,1.7-1.4,2.1l0,0c0.9,0.3,1.8,1.1,1.8,2.4
				C24.3,52.8,22.7,54.2,20.2,54.2z M36.3,45.8l-3.6,7.6c-0.2,0.3-0.5,0.5-0.8,0.5h-0.9c-0.7,0-1.2-0.7-0.8-1.4l3.3-6.4l0,0h-3.5
				c-0.5,0-0.9-0.4-0.9-0.9v-0.4c0-0.5,0.4-0.9,0.9-0.9h5.5c0.5,0,0.9,0.4,0.9,0.9v0.6C36.4,45.6,36.3,45.7,36.3,45.8z M47.8,53.9
				h-5.5c-0.5,0-0.9-0.4-0.9-0.9v-0.3c0-0.3,0.1-0.5,0.3-0.7l1.1-0.9c2-1.8,3.1-2.8,3.1-3.9c0-0.8-0.4-1.2-1.6-1.2
				c-0.5,0-0.9,0.1-1.2,0.3c-0.5,0.2-1.1,0-1.3-0.5l-0.1-0.2c-0.2-0.4,0-1,0.4-1.2c0.7-0.3,1.7-0.6,2.7-0.6c2.3,0,3.8,1.2,3.8,3.2
				c0,1.6-1.1,2.9-2.3,3.9l-1,0.8l0,0h2.5c0.5,0,0.9,0.4,0.9,0.9V53C48.8,53.5,48.4,53.9,47.8,53.9z M20.1,49.6
				c-0.7,0.2-1.1,0.7-1.1,1.3s0.6,1.3,1.2,1.3l0,0c0.7,0,1.2-0.4,1.2-1.1C21.5,50.4,21,49.8,20.1,49.6z M20.5,47.8
				c0.4-0.1,0.9-0.6,0.9-1.1s-0.3-1.2-1.1-1.2l0,0c-0.8,0-1.1,0.4-1.1,1.1C19.2,47.2,19.8,47.6,20.5,47.8z"/>
		</g>
	</g>
</g>
</svg>
